<svg xmlns="http://www.w3.org/2000/svg" viewBox="0 0 512 512" width="512" height="512">
  <defs>
    <linearGradient id="grad1" x1="0%" y1="0%" x2="100%" y2="100%">
      <stop offset="0%" style="stop-color:#DC382D;stop-opacity:1" />
      <stop offset="100%" style="stop-color:#A31E12;stop-opacity:1" />
    </linearGradient>
    <filter id="shadow" x="-20%" y="-20%" width="140%" height="140%">
      <feGaussianBlur in="SourceAlpha" stdDeviation="10" />
      <feOffset dx="5" dy="5" result="offsetblur" />
      <feComponentTransfer>
        <feFuncA type="linear" slope="0.3" />
      </feComponentTransfer>
      <feMerge>
        <feMergeNode />
        <feMergeNode in="SourceGraphic" />
      </feMerge>
    </filter>
  </defs>
  
  <!-- Background -->
  <rect x="32" y="32" width="448" height="448" rx="128" fill="url(#grad1)" filter="url(#shadow)" />
  
  <!-- Database Layers -->
  <path d="M256 128c-70.7 0-128 28.7-128 64s57.3 64 128 64 128-28.7 128-64-57.3-64-128-64z" fill="#ffffff" fill-opacity="0.9"/>
  <path d="M256 280c70.7 0 128-28.7 128-64v64c0 35.3-57.3 64-128 64s-128-28.7-128-64v-64c0 35.3 57.3 64 128 64z" fill="#ffffff" fill-opacity="0.7"/>
  <path d="M256 368c70.7 0 128-28.7 128-64v64c0 35.3-57.3 64-128 64s-128-28.7-128-64v-64c0 35.3 57.3 64 128 64z" fill="#ffffff" fill-opacity="0.5"/>
</svg>
